M48
; DRILL file {KiCad 5.1.9-73d0e3b20d~88~ubuntu20.04.1} date Thu Apr 15 20:37:12 2021
; FORMAT={-:-/ absolute / inch / decimal}
; #@! TF.CreationDate,2021-04-15T20:37:12+02:00
; #@! TF.GenerationSoftware,Kicad,Pcbnew,5.1.9-73d0e3b20d~88~ubuntu20.04.1
; #@! TF.FileFunction,Plated,1,2,PTH
FMAT,2
INCH
T1C0.0157
T2C0.0394
T3C0.0472
T4C0.0591
T5C0.0598
%
G90
G05
T1
X5.29Y-3.97
X5.41Y-4.12
X5.42Y-4.35
X5.47Y-3.51
X5.48Y-3.85
X5.55Y-4.43
X5.7494Y-4.2006
X5.895Y-3.685
X5.985Y-3.835
X6.02Y-3.5575
X6.17Y-3.6362
X6.4904Y-4.2596
T2
X5.18Y-3.55
X5.18Y-3.65
X5.18Y-3.75
X5.3925Y-3.3253
X5.3925Y-3.9316
X6.55Y-3.53
X6.55Y-3.7269
T3
X5.65Y-4.15
X5.9492Y-4.15
X6.1Y-4.15
X6.3992Y-4.15
T4
X5.65Y-4.8547
X5.9492Y-4.5516
X5.9492Y-4.8547
X6.1Y-4.8547
X6.3992Y-4.5516
X6.3992Y-4.8547
T5
X6.82Y-3.45
X6.82Y-3.65
X6.82Y-3.85
X6.82Y-4.07
X6.82Y-4.27
X6.82Y-4.47
T0
M30
