G04 #@! TF.GenerationSoftware,KiCad,Pcbnew,5.1.9-73d0e3b20d~88~ubuntu20.04.1*
G04 #@! TF.CreationDate,2021-04-15T20:46:28+02:00*
G04 #@! TF.ProjectId,FAN-Light,46414e2d-4c69-4676-9874-2e6b69636164,rev?*
G04 #@! TF.SameCoordinates,Original*
G04 #@! TF.FileFunction,Copper,L1,Top*
G04 #@! TF.FilePolarity,Positive*
%FSLAX46Y46*%
G04 Gerber Fmt 4.6, Leading zero omitted, Abs format (unit mm)*
G04 Created by KiCad (PCBNEW 5.1.9-73d0e3b20d~88~ubuntu20.04.1) date 2021-04-15 20:46:28*
%MOMM*%
%LPD*%
G01*
G04 APERTURE LIST*
G04 #@! TA.AperFunction,ComponentPad*
%ADD10C,2.300000*%
G04 #@! TD*
G04 #@! TA.AperFunction,ComponentPad*
%ADD11R,2.300000X2.000000*%
G04 #@! TD*
G04 #@! TA.AperFunction,SMDPad,CuDef*
%ADD12R,2.500000X1.100000*%
G04 #@! TD*
G04 #@! TA.AperFunction,ComponentPad*
%ADD13R,3.000000X3.000000*%
G04 #@! TD*
G04 #@! TA.AperFunction,ComponentPad*
%ADD14C,3.000000*%
G04 #@! TD*
G04 #@! TA.AperFunction,ComponentPad*
%ADD15C,2.500000*%
G04 #@! TD*
G04 #@! TA.AperFunction,ComponentPad*
%ADD16C,2.200000*%
G04 #@! TD*
G04 #@! TA.AperFunction,ComponentPad*
%ADD17R,1.700000X1.700000*%
G04 #@! TD*
G04 #@! TA.AperFunction,ComponentPad*
%ADD18O,1.700000X1.700000*%
G04 #@! TD*
G04 #@! TA.AperFunction,SMDPad,CuDef*
%ADD19R,0.900000X0.800000*%
G04 #@! TD*
G04 #@! TA.AperFunction,SMDPad,CuDef*
%ADD20R,3.800000X2.000000*%
G04 #@! TD*
G04 #@! TA.AperFunction,SMDPad,CuDef*
%ADD21R,1.500000X2.000000*%
G04 #@! TD*
G04 #@! TA.AperFunction,ViaPad*
%ADD22C,0.800000*%
G04 #@! TD*
G04 #@! TA.AperFunction,Conductor*
%ADD23C,0.800000*%
G04 #@! TD*
G04 #@! TA.AperFunction,Conductor*
%ADD24C,1.500000*%
G04 #@! TD*
G04 #@! TA.AperFunction,Conductor*
%ADD25C,1.000000*%
G04 #@! TD*
G04 #@! TA.AperFunction,Conductor*
%ADD26C,0.600000*%
G04 #@! TD*
G04 APERTURE END LIST*
D10*
X136970000Y-99862000D03*
X166370000Y-94662000D03*
D11*
X166370000Y-89662000D03*
D10*
X136970000Y-84462000D03*
D12*
X159480000Y-86360000D03*
X159480000Y-88360000D03*
X159480000Y-90360000D03*
X159480000Y-92360000D03*
X159480000Y-94360000D03*
X159480000Y-96360000D03*
X159480000Y-98360000D03*
X159480000Y-100360000D03*
X144080000Y-100360000D03*
X144080000Y-98360000D03*
X144080000Y-96360000D03*
X144080000Y-94360000D03*
X144080000Y-92360000D03*
X144080000Y-90360000D03*
X144080000Y-88360000D03*
X144080000Y-86360000D03*
D13*
X173228000Y-103378000D03*
D14*
X173228000Y-108458000D03*
X173228000Y-113538000D03*
D15*
X162540000Y-115610000D03*
G04 #@! TA.AperFunction,ComponentPad*
G36*
G01*
X154181000Y-104310000D02*
X155699000Y-104310000D01*
G75*
G02*
X156040000Y-104651000I0J-341000D01*
G01*
X156040000Y-106169000D01*
G75*
G02*
X155699000Y-106510000I-341000J0D01*
G01*
X154181000Y-106510000D01*
G75*
G02*
X153840000Y-106169000I0J341000D01*
G01*
X153840000Y-104651000D01*
G75*
G02*
X154181000Y-104310000I341000J0D01*
G01*
G37*
G04 #@! TD.AperFunction*
D16*
X162540000Y-105410000D03*
D15*
X162540000Y-123310000D03*
X154940000Y-123310000D03*
G04 #@! TA.AperFunction,SMDPad,CuDef*
G36*
G01*
X138925000Y-102245000D02*
X138925000Y-103495000D01*
G75*
G02*
X138675000Y-103745000I-250000J0D01*
G01*
X137750000Y-103745000D01*
G75*
G02*
X137500000Y-103495000I0J250000D01*
G01*
X137500000Y-102245000D01*
G75*
G02*
X137750000Y-101995000I250000J0D01*
G01*
X138675000Y-101995000D01*
G75*
G02*
X138925000Y-102245000I0J-250000D01*
G01*
G37*
G04 #@! TD.AperFunction*
G04 #@! TA.AperFunction,SMDPad,CuDef*
G36*
G01*
X141900000Y-102245000D02*
X141900000Y-103495000D01*
G75*
G02*
X141650000Y-103745000I-250000J0D01*
G01*
X140725000Y-103745000D01*
G75*
G02*
X140475000Y-103495000I0J250000D01*
G01*
X140475000Y-102245000D01*
G75*
G02*
X140725000Y-101995000I250000J0D01*
G01*
X141650000Y-101995000D01*
G75*
G02*
X141900000Y-102245000I0J-250000D01*
G01*
G37*
G04 #@! TD.AperFunction*
G04 #@! TA.AperFunction,SMDPad,CuDef*
G36*
G01*
X139150000Y-105590000D02*
X140250000Y-105590000D01*
G75*
G02*
X140500000Y-105840000I0J-250000D01*
G01*
X140500000Y-107940000D01*
G75*
G02*
X140250000Y-108190000I-250000J0D01*
G01*
X139150000Y-108190000D01*
G75*
G02*
X138900000Y-107940000I0J250000D01*
G01*
X138900000Y-105840000D01*
G75*
G02*
X139150000Y-105590000I250000J0D01*
G01*
G37*
G04 #@! TD.AperFunction*
G04 #@! TA.AperFunction,SMDPad,CuDef*
G36*
G01*
X139150000Y-109190000D02*
X140250000Y-109190000D01*
G75*
G02*
X140500000Y-109440000I0J-250000D01*
G01*
X140500000Y-111540000D01*
G75*
G02*
X140250000Y-111790000I-250000J0D01*
G01*
X139150000Y-111790000D01*
G75*
G02*
X138900000Y-111540000I0J250000D01*
G01*
X138900000Y-109440000D01*
G75*
G02*
X139150000Y-109190000I250000J0D01*
G01*
G37*
G04 #@! TD.AperFunction*
G04 #@! TA.AperFunction,SMDPad,CuDef*
G36*
G01*
X138400000Y-115104000D02*
X138400000Y-114004000D01*
G75*
G02*
X138650000Y-113754000I250000J0D01*
G01*
X140750000Y-113754000D01*
G75*
G02*
X141000000Y-114004000I0J-250000D01*
G01*
X141000000Y-115104000D01*
G75*
G02*
X140750000Y-115354000I-250000J0D01*
G01*
X138650000Y-115354000D01*
G75*
G02*
X138400000Y-115104000I0J250000D01*
G01*
G37*
G04 #@! TD.AperFunction*
G04 #@! TA.AperFunction,SMDPad,CuDef*
G36*
G01*
X134800000Y-115104000D02*
X134800000Y-114004000D01*
G75*
G02*
X135050000Y-113754000I250000J0D01*
G01*
X137150000Y-113754000D01*
G75*
G02*
X137400000Y-114004000I0J-250000D01*
G01*
X137400000Y-115104000D01*
G75*
G02*
X137150000Y-115354000I-250000J0D01*
G01*
X135050000Y-115354000D01*
G75*
G02*
X134800000Y-115104000I0J250000D01*
G01*
G37*
G04 #@! TD.AperFunction*
D14*
X173228000Y-97790000D03*
X173228000Y-92710000D03*
D13*
X173228000Y-87630000D03*
D17*
X131572000Y-90170000D03*
D18*
X131572000Y-92710000D03*
X131572000Y-95250000D03*
D15*
X143510000Y-123310000D03*
X151110000Y-123310000D03*
D16*
X151110000Y-105410000D03*
G04 #@! TA.AperFunction,ComponentPad*
G36*
G01*
X142751000Y-104310000D02*
X144269000Y-104310000D01*
G75*
G02*
X144610000Y-104651000I0J-341000D01*
G01*
X144610000Y-106169000D01*
G75*
G02*
X144269000Y-106510000I-341000J0D01*
G01*
X142751000Y-106510000D01*
G75*
G02*
X142410000Y-106169000I0J341000D01*
G01*
X142410000Y-104651000D01*
G75*
G02*
X142751000Y-104310000I341000J0D01*
G01*
G37*
G04 #@! TD.AperFunction*
D15*
X151110000Y-115610000D03*
D19*
X155480000Y-109474000D03*
X157480000Y-108524000D03*
X157480000Y-110424000D03*
X146034000Y-110424000D03*
X146034000Y-108524000D03*
X144034000Y-109474000D03*
G04 #@! TA.AperFunction,SMDPad,CuDef*
G36*
G01*
X163010001Y-110820000D02*
X162109999Y-110820000D01*
G75*
G02*
X161860000Y-110570001I0J249999D01*
G01*
X161860000Y-109919999D01*
G75*
G02*
X162109999Y-109670000I249999J0D01*
G01*
X163010001Y-109670000D01*
G75*
G02*
X163260000Y-109919999I0J-249999D01*
G01*
X163260000Y-110570001D01*
G75*
G02*
X163010001Y-110820000I-249999J0D01*
G01*
G37*
G04 #@! TD.AperFunction*
G04 #@! TA.AperFunction,SMDPad,CuDef*
G36*
G01*
X163010001Y-108770000D02*
X162109999Y-108770000D01*
G75*
G02*
X161860000Y-108520001I0J249999D01*
G01*
X161860000Y-107869999D01*
G75*
G02*
X162109999Y-107620000I249999J0D01*
G01*
X163010001Y-107620000D01*
G75*
G02*
X163260000Y-107869999I0J-249999D01*
G01*
X163260000Y-108520001D01*
G75*
G02*
X163010001Y-108770000I-249999J0D01*
G01*
G37*
G04 #@! TD.AperFunction*
G04 #@! TA.AperFunction,SMDPad,CuDef*
G36*
G01*
X151580001Y-108770000D02*
X150679999Y-108770000D01*
G75*
G02*
X150430000Y-108520001I0J249999D01*
G01*
X150430000Y-107869999D01*
G75*
G02*
X150679999Y-107620000I249999J0D01*
G01*
X151580001Y-107620000D01*
G75*
G02*
X151830000Y-107869999I0J-249999D01*
G01*
X151830000Y-108520001D01*
G75*
G02*
X151580001Y-108770000I-249999J0D01*
G01*
G37*
G04 #@! TD.AperFunction*
G04 #@! TA.AperFunction,SMDPad,CuDef*
G36*
G01*
X151580001Y-110820000D02*
X150679999Y-110820000D01*
G75*
G02*
X150430000Y-110570001I0J249999D01*
G01*
X150430000Y-109919999D01*
G75*
G02*
X150679999Y-109670000I249999J0D01*
G01*
X151580001Y-109670000D01*
G75*
G02*
X151830000Y-109919999I0J-249999D01*
G01*
X151830000Y-110570001D01*
G75*
G02*
X151580001Y-110820000I-249999J0D01*
G01*
G37*
G04 #@! TD.AperFunction*
G04 #@! TA.AperFunction,SMDPad,CuDef*
G36*
G01*
X148786001Y-110820000D02*
X147885999Y-110820000D01*
G75*
G02*
X147636000Y-110570001I0J249999D01*
G01*
X147636000Y-109919999D01*
G75*
G02*
X147885999Y-109670000I249999J0D01*
G01*
X148786001Y-109670000D01*
G75*
G02*
X149036000Y-109919999I0J-249999D01*
G01*
X149036000Y-110570001D01*
G75*
G02*
X148786001Y-110820000I-249999J0D01*
G01*
G37*
G04 #@! TD.AperFunction*
G04 #@! TA.AperFunction,SMDPad,CuDef*
G36*
G01*
X148786001Y-108770000D02*
X147885999Y-108770000D01*
G75*
G02*
X147636000Y-108520001I0J249999D01*
G01*
X147636000Y-107869999D01*
G75*
G02*
X147885999Y-107620000I249999J0D01*
G01*
X148786001Y-107620000D01*
G75*
G02*
X149036000Y-107869999I0J-249999D01*
G01*
X149036000Y-108520001D01*
G75*
G02*
X148786001Y-108770000I-249999J0D01*
G01*
G37*
G04 #@! TD.AperFunction*
G04 #@! TA.AperFunction,SMDPad,CuDef*
G36*
G01*
X142053000Y-83369999D02*
X142053000Y-84270001D01*
G75*
G02*
X141803001Y-84520000I-249999J0D01*
G01*
X141152999Y-84520000D01*
G75*
G02*
X140903000Y-84270001I0J249999D01*
G01*
X140903000Y-83369999D01*
G75*
G02*
X141152999Y-83120000I249999J0D01*
G01*
X141803001Y-83120000D01*
G75*
G02*
X142053000Y-83369999I0J-249999D01*
G01*
G37*
G04 #@! TD.AperFunction*
G04 #@! TA.AperFunction,SMDPad,CuDef*
G36*
G01*
X140003000Y-83369999D02*
X140003000Y-84270001D01*
G75*
G02*
X139753001Y-84520000I-249999J0D01*
G01*
X139102999Y-84520000D01*
G75*
G02*
X138853000Y-84270001I0J249999D01*
G01*
X138853000Y-83369999D01*
G75*
G02*
X139102999Y-83120000I249999J0D01*
G01*
X139753001Y-83120000D01*
G75*
G02*
X140003000Y-83369999I0J-249999D01*
G01*
G37*
G04 #@! TD.AperFunction*
G04 #@! TA.AperFunction,SMDPad,CuDef*
G36*
G01*
X141420001Y-86935000D02*
X140519999Y-86935000D01*
G75*
G02*
X140270000Y-86685001I0J249999D01*
G01*
X140270000Y-86034999D01*
G75*
G02*
X140519999Y-85785000I249999J0D01*
G01*
X141420001Y-85785000D01*
G75*
G02*
X141670000Y-86034999I0J-249999D01*
G01*
X141670000Y-86685001D01*
G75*
G02*
X141420001Y-86935000I-249999J0D01*
G01*
G37*
G04 #@! TD.AperFunction*
G04 #@! TA.AperFunction,SMDPad,CuDef*
G36*
G01*
X141420001Y-88985000D02*
X140519999Y-88985000D01*
G75*
G02*
X140270000Y-88735001I0J249999D01*
G01*
X140270000Y-88084999D01*
G75*
G02*
X140519999Y-87835000I249999J0D01*
G01*
X141420001Y-87835000D01*
G75*
G02*
X141670000Y-88084999I0J-249999D01*
G01*
X141670000Y-88735001D01*
G75*
G02*
X141420001Y-88985000I-249999J0D01*
G01*
G37*
G04 #@! TD.AperFunction*
G04 #@! TA.AperFunction,SMDPad,CuDef*
G36*
G01*
X140903000Y-81730001D02*
X140903000Y-80829999D01*
G75*
G02*
X141152999Y-80580000I249999J0D01*
G01*
X141803001Y-80580000D01*
G75*
G02*
X142053000Y-80829999I0J-249999D01*
G01*
X142053000Y-81730001D01*
G75*
G02*
X141803001Y-81980000I-249999J0D01*
G01*
X141152999Y-81980000D01*
G75*
G02*
X140903000Y-81730001I0J249999D01*
G01*
G37*
G04 #@! TD.AperFunction*
G04 #@! TA.AperFunction,SMDPad,CuDef*
G36*
G01*
X138853000Y-81730001D02*
X138853000Y-80829999D01*
G75*
G02*
X139102999Y-80580000I249999J0D01*
G01*
X139753001Y-80580000D01*
G75*
G02*
X140003000Y-80829999I0J-249999D01*
G01*
X140003000Y-81730001D01*
G75*
G02*
X139753001Y-81980000I-249999J0D01*
G01*
X139102999Y-81980000D01*
G75*
G02*
X138853000Y-81730001I0J249999D01*
G01*
G37*
G04 #@! TD.AperFunction*
G04 #@! TA.AperFunction,SMDPad,CuDef*
G36*
G01*
X163010001Y-100415000D02*
X162109999Y-100415000D01*
G75*
G02*
X161860000Y-100165001I0J249999D01*
G01*
X161860000Y-99514999D01*
G75*
G02*
X162109999Y-99265000I249999J0D01*
G01*
X163010001Y-99265000D01*
G75*
G02*
X163260000Y-99514999I0J-249999D01*
G01*
X163260000Y-100165001D01*
G75*
G02*
X163010001Y-100415000I-249999J0D01*
G01*
G37*
G04 #@! TD.AperFunction*
G04 #@! TA.AperFunction,SMDPad,CuDef*
G36*
G01*
X163010001Y-98365000D02*
X162109999Y-98365000D01*
G75*
G02*
X161860000Y-98115001I0J249999D01*
G01*
X161860000Y-97464999D01*
G75*
G02*
X162109999Y-97215000I249999J0D01*
G01*
X163010001Y-97215000D01*
G75*
G02*
X163260000Y-97464999I0J-249999D01*
G01*
X163260000Y-98115001D01*
G75*
G02*
X163010001Y-98365000I-249999J0D01*
G01*
G37*
G04 #@! TD.AperFunction*
D20*
X133350000Y-110490000D03*
D21*
X133350000Y-104190000D03*
X131050000Y-104190000D03*
X135650000Y-104190000D03*
G04 #@! TA.AperFunction,SMDPad,CuDef*
G36*
G01*
X133995000Y-85647500D02*
X135245000Y-85647500D01*
G75*
G02*
X135495000Y-85897500I0J-250000D01*
G01*
X135495000Y-86822500D01*
G75*
G02*
X135245000Y-87072500I-250000J0D01*
G01*
X133995000Y-87072500D01*
G75*
G02*
X133745000Y-86822500I0J250000D01*
G01*
X133745000Y-85897500D01*
G75*
G02*
X133995000Y-85647500I250000J0D01*
G01*
G37*
G04 #@! TD.AperFunction*
G04 #@! TA.AperFunction,SMDPad,CuDef*
G36*
G01*
X133995000Y-88622500D02*
X135245000Y-88622500D01*
G75*
G02*
X135495000Y-88872500I0J-250000D01*
G01*
X135495000Y-89797500D01*
G75*
G02*
X135245000Y-90047500I-250000J0D01*
G01*
X133995000Y-90047500D01*
G75*
G02*
X133745000Y-89797500I0J250000D01*
G01*
X133745000Y-88872500D01*
G75*
G02*
X133995000Y-88622500I250000J0D01*
G01*
G37*
G04 #@! TD.AperFunction*
G04 #@! TA.AperFunction,SMDPad,CuDef*
G36*
G01*
X135245000Y-92987500D02*
X133995000Y-92987500D01*
G75*
G02*
X133745000Y-92737500I0J250000D01*
G01*
X133745000Y-91812500D01*
G75*
G02*
X133995000Y-91562500I250000J0D01*
G01*
X135245000Y-91562500D01*
G75*
G02*
X135495000Y-91812500I0J-250000D01*
G01*
X135495000Y-92737500D01*
G75*
G02*
X135245000Y-92987500I-250000J0D01*
G01*
G37*
G04 #@! TD.AperFunction*
G04 #@! TA.AperFunction,SMDPad,CuDef*
G36*
G01*
X135245000Y-95962500D02*
X133995000Y-95962500D01*
G75*
G02*
X133745000Y-95712500I0J250000D01*
G01*
X133745000Y-94787500D01*
G75*
G02*
X133995000Y-94537500I250000J0D01*
G01*
X135245000Y-94537500D01*
G75*
G02*
X135495000Y-94787500I0J-250000D01*
G01*
X135495000Y-95712500D01*
G75*
G02*
X135245000Y-95962500I-250000J0D01*
G01*
G37*
G04 #@! TD.AperFunction*
G04 #@! TA.AperFunction,SMDPad,CuDef*
G36*
G01*
X160470001Y-110820000D02*
X159569999Y-110820000D01*
G75*
G02*
X159320000Y-110570001I0J249999D01*
G01*
X159320000Y-109919999D01*
G75*
G02*
X159569999Y-109670000I249999J0D01*
G01*
X160470001Y-109670000D01*
G75*
G02*
X160720000Y-109919999I0J-249999D01*
G01*
X160720000Y-110570001D01*
G75*
G02*
X160470001Y-110820000I-249999J0D01*
G01*
G37*
G04 #@! TD.AperFunction*
G04 #@! TA.AperFunction,SMDPad,CuDef*
G36*
G01*
X160470001Y-108770000D02*
X159569999Y-108770000D01*
G75*
G02*
X159320000Y-108520001I0J249999D01*
G01*
X159320000Y-107869999D01*
G75*
G02*
X159569999Y-107620000I249999J0D01*
G01*
X160470001Y-107620000D01*
G75*
G02*
X160720000Y-107869999I0J-249999D01*
G01*
X160720000Y-108520001D01*
G75*
G02*
X160470001Y-108770000I-249999J0D01*
G01*
G37*
G04 #@! TD.AperFunction*
G04 #@! TA.AperFunction,SMDPad,CuDef*
G36*
G01*
X152791000Y-110503000D02*
X154041000Y-110503000D01*
G75*
G02*
X154291000Y-110753000I0J-250000D01*
G01*
X154291000Y-111678000D01*
G75*
G02*
X154041000Y-111928000I-250000J0D01*
G01*
X152791000Y-111928000D01*
G75*
G02*
X152541000Y-111678000I0J250000D01*
G01*
X152541000Y-110753000D01*
G75*
G02*
X152791000Y-110503000I250000J0D01*
G01*
G37*
G04 #@! TD.AperFunction*
G04 #@! TA.AperFunction,SMDPad,CuDef*
G36*
G01*
X152791000Y-107528000D02*
X154041000Y-107528000D01*
G75*
G02*
X154291000Y-107778000I0J-250000D01*
G01*
X154291000Y-108703000D01*
G75*
G02*
X154041000Y-108953000I-250000J0D01*
G01*
X152791000Y-108953000D01*
G75*
G02*
X152541000Y-108703000I0J250000D01*
G01*
X152541000Y-107778000D01*
G75*
G02*
X152791000Y-107528000I250000J0D01*
G01*
G37*
G04 #@! TD.AperFunction*
G04 #@! TA.AperFunction,SMDPad,CuDef*
G36*
G01*
X144389000Y-115992000D02*
X143139000Y-115992000D01*
G75*
G02*
X142889000Y-115742000I0J250000D01*
G01*
X142889000Y-114817000D01*
G75*
G02*
X143139000Y-114567000I250000J0D01*
G01*
X144389000Y-114567000D01*
G75*
G02*
X144639000Y-114817000I0J-250000D01*
G01*
X144639000Y-115742000D01*
G75*
G02*
X144389000Y-115992000I-250000J0D01*
G01*
G37*
G04 #@! TD.AperFunction*
G04 #@! TA.AperFunction,SMDPad,CuDef*
G36*
G01*
X144389000Y-113017000D02*
X143139000Y-113017000D01*
G75*
G02*
X142889000Y-112767000I0J250000D01*
G01*
X142889000Y-111842000D01*
G75*
G02*
X143139000Y-111592000I250000J0D01*
G01*
X144389000Y-111592000D01*
G75*
G02*
X144639000Y-111842000I0J-250000D01*
G01*
X144639000Y-112767000D01*
G75*
G02*
X144389000Y-113017000I-250000J0D01*
G01*
G37*
G04 #@! TD.AperFunction*
D22*
X134366000Y-100838000D03*
X137414000Y-104648000D03*
X137668000Y-110490000D03*
X152019000Y-97409000D03*
X146034000Y-106696000D03*
X140970000Y-112522000D03*
X138938000Y-89154000D03*
X139192000Y-97790000D03*
X164855000Y-108195000D03*
X156718000Y-92360000D03*
X152908000Y-90360000D03*
X149733000Y-93599000D03*
D23*
X136892500Y-104190000D02*
X138212500Y-102870000D01*
X135650000Y-104190000D02*
X136892500Y-104190000D01*
X162040000Y-100360000D02*
X162560000Y-99840000D01*
X160020000Y-101600000D02*
X158780000Y-100360000D01*
D24*
X160020000Y-101600000D02*
X161260000Y-100360000D01*
D23*
X161260000Y-100360000D02*
X162040000Y-100360000D01*
X158780000Y-100360000D02*
X161260000Y-100360000D01*
D25*
X134185000Y-92710000D02*
X134620000Y-92275000D01*
X132080000Y-92710000D02*
X134185000Y-92710000D01*
D24*
X160020000Y-101600000D02*
X160020000Y-102235000D01*
D25*
X139700000Y-110490000D02*
X137668000Y-110490000D01*
X136892500Y-104190000D02*
X136956000Y-104190000D01*
X136956000Y-104190000D02*
X137414000Y-104648000D01*
D24*
X160020000Y-102235000D02*
X160020000Y-107950000D01*
D23*
X146034000Y-108524000D02*
X146034000Y-108474000D01*
X146313000Y-108195000D02*
X148336000Y-108195000D01*
X146034000Y-108474000D02*
X146313000Y-108195000D01*
X159691000Y-108524000D02*
X160020000Y-108195000D01*
X157480000Y-108524000D02*
X159691000Y-108524000D01*
D25*
X158780000Y-100360000D02*
X154970000Y-100360000D01*
X154970000Y-100360000D02*
X152019000Y-97409000D01*
X152019000Y-97409000D02*
X151892000Y-97282000D01*
D23*
X146034000Y-108524000D02*
X146034000Y-106696000D01*
X139700000Y-112522000D02*
X140970000Y-112522000D01*
X139700000Y-114300000D02*
X139700000Y-112522000D01*
X139700000Y-112522000D02*
X139700000Y-110490000D01*
D25*
X134620000Y-86360000D02*
X134620000Y-85598000D01*
X135756000Y-84462000D02*
X136970000Y-84462000D01*
X134620000Y-85598000D02*
X135756000Y-84462000D01*
X135650000Y-104190000D02*
X135650000Y-102122000D01*
X135650000Y-102122000D02*
X134620000Y-101092000D01*
X134620000Y-101092000D02*
X134366000Y-100838000D01*
D24*
X173228000Y-97790000D02*
X170434000Y-97790000D01*
X167864000Y-100360000D02*
X162040000Y-100360000D01*
X170434000Y-97790000D02*
X167864000Y-100360000D01*
D23*
X140970000Y-86360000D02*
X139700000Y-86360000D01*
X139700000Y-86360000D02*
X139700000Y-83820000D01*
X139700000Y-83820000D02*
X139700000Y-81280000D01*
X133560000Y-106890000D02*
X133350000Y-106680000D01*
X139700000Y-106890000D02*
X133560000Y-106890000D01*
X133350000Y-106680000D02*
X133350000Y-104190000D01*
X133350000Y-110490000D02*
X133350000Y-106680000D01*
X139700000Y-106890000D02*
X139700000Y-105410000D01*
X141187500Y-103922500D02*
X141187500Y-102870000D01*
X139700000Y-105410000D02*
X141187500Y-103922500D01*
X141187500Y-100547500D02*
X141405000Y-100330000D01*
X141187500Y-102870000D02*
X141187500Y-100547500D01*
X144750000Y-100330000D02*
X144780000Y-100360000D01*
X141405000Y-100330000D02*
X144750000Y-100330000D01*
X139700000Y-86360000D02*
X139192000Y-86360000D01*
X139192000Y-86360000D02*
X138938000Y-86614000D01*
X138938000Y-86614000D02*
X138938000Y-89154000D01*
D26*
X141405000Y-100330000D02*
X141405000Y-100003000D01*
X141405000Y-100003000D02*
X139192000Y-97790000D01*
X139192000Y-97790000D02*
X141909990Y-100507990D01*
D23*
X131050000Y-104190000D02*
X131050000Y-103110000D01*
D25*
X136100000Y-114300000D02*
X131572000Y-114300000D01*
X131572000Y-114300000D02*
X128778000Y-111506000D01*
X128778000Y-106462000D02*
X131050000Y-104190000D01*
X128778000Y-111506000D02*
X128778000Y-106462000D01*
X131050000Y-104190000D02*
X131050000Y-100852000D01*
X131050000Y-100852000D02*
X132334000Y-99568000D01*
X136745991Y-99637991D02*
X136970000Y-99862000D01*
X132403991Y-99637991D02*
X136745991Y-99637991D01*
X132334000Y-99568000D02*
X132403991Y-99637991D01*
D23*
X136100000Y-114554000D02*
X136100000Y-116288000D01*
X136100000Y-116288000D02*
X136906000Y-117094000D01*
X136906000Y-117094000D02*
X142748000Y-117094000D01*
X143764000Y-116078000D02*
X143764000Y-114989000D01*
X142748000Y-117094000D02*
X143764000Y-116078000D01*
X153670000Y-107970000D02*
X151110000Y-105410000D01*
X153670000Y-108240500D02*
X153670000Y-107970000D01*
X155480000Y-105950000D02*
X154940000Y-105410000D01*
X155480000Y-109474000D02*
X155480000Y-105950000D01*
X153738500Y-111215500D02*
X155480000Y-109474000D01*
X153670000Y-111215500D02*
X153738500Y-111215500D01*
X144034000Y-105934000D02*
X143510000Y-105410000D01*
X144034000Y-109474000D02*
X144034000Y-105934000D01*
X143764000Y-105664000D02*
X143510000Y-105410000D01*
X143764000Y-112014000D02*
X143764000Y-105664000D01*
D24*
X151110000Y-121432000D02*
X153162000Y-119380000D01*
X153162000Y-119380000D02*
X165100000Y-119380000D01*
X165100000Y-119380000D02*
X168910000Y-115570000D01*
X168910000Y-115570000D02*
X168910000Y-105410000D01*
X170942000Y-103378000D02*
X173228000Y-103378000D01*
X168910000Y-105410000D02*
X170942000Y-103378000D01*
X151110000Y-121432000D02*
X151110000Y-123310000D01*
D23*
X144400000Y-93980000D02*
X144780000Y-94360000D01*
X139700000Y-93980000D02*
X144400000Y-93980000D01*
X132080000Y-90170000D02*
X133350000Y-90170000D01*
X139700000Y-93980000D02*
X135890000Y-90170000D01*
D25*
X134620000Y-90170000D02*
X134620000Y-89335000D01*
D23*
X135890000Y-90170000D02*
X134620000Y-90170000D01*
X134620000Y-90170000D02*
X132080000Y-90170000D01*
X135730000Y-96360000D02*
X134620000Y-95250000D01*
X144780000Y-96360000D02*
X135730000Y-96360000D01*
X134620000Y-95250000D02*
X131572000Y-95250000D01*
X162315000Y-110000000D02*
X162560000Y-110245000D01*
X160020000Y-110000000D02*
X162315000Y-110000000D01*
X159841000Y-110424000D02*
X160020000Y-110245000D01*
X157480000Y-110424000D02*
X159841000Y-110424000D01*
X148590000Y-110000000D02*
X148590000Y-110490000D01*
X148590000Y-110490000D02*
X151130000Y-110490000D01*
X148440000Y-109850000D02*
X148590000Y-110000000D01*
D25*
X148157000Y-110424000D02*
X148336000Y-110245000D01*
X146034000Y-110424000D02*
X148157000Y-110424000D01*
D23*
X162560000Y-108195000D02*
X164855000Y-108195000D01*
X158780000Y-92360000D02*
X156718000Y-92360000D01*
D26*
X151130000Y-108195000D02*
X148336000Y-105401000D01*
X148336000Y-105401000D02*
X148336000Y-94996000D01*
X148336000Y-94996000D02*
X149733000Y-93599000D01*
X149733000Y-93599000D02*
X149860000Y-93472000D01*
X152908000Y-90360000D02*
X158780000Y-90360000D01*
D23*
X141478000Y-83820000D02*
X141986000Y-83820000D01*
X144526000Y-86360000D02*
X144780000Y-86360000D01*
X142240000Y-83820000D02*
X144780000Y-86360000D01*
X141478000Y-83820000D02*
X142240000Y-83820000D01*
X140970000Y-88410000D02*
X140970000Y-90170000D01*
X144590000Y-90170000D02*
X144780000Y-90360000D01*
X140970000Y-90170000D02*
X144590000Y-90170000D01*
X141478000Y-81280000D02*
X142494000Y-81280000D01*
X142494000Y-81280000D02*
X147828000Y-86614000D01*
X147828000Y-86614000D02*
X147828000Y-89154000D01*
X153034000Y-94360000D02*
X158780000Y-94360000D01*
X147828000Y-89154000D02*
X153034000Y-94360000D01*
X161990000Y-98360000D02*
X162560000Y-97790000D01*
X158780000Y-98360000D02*
X161990000Y-98360000D01*
D24*
X166370000Y-94662000D02*
X169244000Y-94662000D01*
X171196000Y-92710000D02*
X173228000Y-92710000D01*
X169244000Y-94662000D02*
X171196000Y-92710000D01*
M02*
