G04 #@! TF.GenerationSoftware,KiCad,Pcbnew,5.1.9-73d0e3b20d~88~ubuntu20.04.1*
G04 #@! TF.CreationDate,2021-04-15T20:46:28+02:00*
G04 #@! TF.ProjectId,FAN-Light,46414e2d-4c69-4676-9874-2e6b69636164,rev?*
G04 #@! TF.SameCoordinates,Original*
G04 #@! TF.FileFunction,Soldermask,Top*
G04 #@! TF.FilePolarity,Negative*
%FSLAX46Y46*%
G04 Gerber Fmt 4.6, Leading zero omitted, Abs format (unit mm)*
G04 Created by KiCad (PCBNEW 5.1.9-73d0e3b20d~88~ubuntu20.04.1) date 2021-04-15 20:46:28*
%MOMM*%
%LPD*%
G01*
G04 APERTURE LIST*
%ADD10C,2.400000*%
%ADD11C,3.100000*%
%ADD12C,2.600000*%
%ADD13C,2.300000*%
%ADD14O,1.800000X1.800000*%
G04 APERTURE END LIST*
D10*
X136970000Y-99862000D03*
X166370000Y-94662000D03*
G36*
G01*
X167570000Y-88662000D02*
X167570000Y-90662000D01*
G75*
G02*
X167520000Y-90712000I-50000J0D01*
G01*
X165220000Y-90712000D01*
G75*
G02*
X165170000Y-90662000I0J50000D01*
G01*
X165170000Y-88662000D01*
G75*
G02*
X165220000Y-88612000I50000J0D01*
G01*
X167520000Y-88612000D01*
G75*
G02*
X167570000Y-88662000I0J-50000D01*
G01*
G37*
X136970000Y-84462000D03*
G36*
G01*
X158180000Y-86910000D02*
X158180000Y-85810000D01*
G75*
G02*
X158230000Y-85760000I50000J0D01*
G01*
X160730000Y-85760000D01*
G75*
G02*
X160780000Y-85810000I0J-50000D01*
G01*
X160780000Y-86910000D01*
G75*
G02*
X160730000Y-86960000I-50000J0D01*
G01*
X158230000Y-86960000D01*
G75*
G02*
X158180000Y-86910000I0J50000D01*
G01*
G37*
G36*
G01*
X158180000Y-88910000D02*
X158180000Y-87810000D01*
G75*
G02*
X158230000Y-87760000I50000J0D01*
G01*
X160730000Y-87760000D01*
G75*
G02*
X160780000Y-87810000I0J-50000D01*
G01*
X160780000Y-88910000D01*
G75*
G02*
X160730000Y-88960000I-50000J0D01*
G01*
X158230000Y-88960000D01*
G75*
G02*
X158180000Y-88910000I0J50000D01*
G01*
G37*
G36*
G01*
X158180000Y-90910000D02*
X158180000Y-89810000D01*
G75*
G02*
X158230000Y-89760000I50000J0D01*
G01*
X160730000Y-89760000D01*
G75*
G02*
X160780000Y-89810000I0J-50000D01*
G01*
X160780000Y-90910000D01*
G75*
G02*
X160730000Y-90960000I-50000J0D01*
G01*
X158230000Y-90960000D01*
G75*
G02*
X158180000Y-90910000I0J50000D01*
G01*
G37*
G36*
G01*
X158180000Y-92910000D02*
X158180000Y-91810000D01*
G75*
G02*
X158230000Y-91760000I50000J0D01*
G01*
X160730000Y-91760000D01*
G75*
G02*
X160780000Y-91810000I0J-50000D01*
G01*
X160780000Y-92910000D01*
G75*
G02*
X160730000Y-92960000I-50000J0D01*
G01*
X158230000Y-92960000D01*
G75*
G02*
X158180000Y-92910000I0J50000D01*
G01*
G37*
G36*
G01*
X158180000Y-94910000D02*
X158180000Y-93810000D01*
G75*
G02*
X158230000Y-93760000I50000J0D01*
G01*
X160730000Y-93760000D01*
G75*
G02*
X160780000Y-93810000I0J-50000D01*
G01*
X160780000Y-94910000D01*
G75*
G02*
X160730000Y-94960000I-50000J0D01*
G01*
X158230000Y-94960000D01*
G75*
G02*
X158180000Y-94910000I0J50000D01*
G01*
G37*
G36*
G01*
X158180000Y-96910000D02*
X158180000Y-95810000D01*
G75*
G02*
X158230000Y-95760000I50000J0D01*
G01*
X160730000Y-95760000D01*
G75*
G02*
X160780000Y-95810000I0J-50000D01*
G01*
X160780000Y-96910000D01*
G75*
G02*
X160730000Y-96960000I-50000J0D01*
G01*
X158230000Y-96960000D01*
G75*
G02*
X158180000Y-96910000I0J50000D01*
G01*
G37*
G36*
G01*
X158180000Y-98910000D02*
X158180000Y-97810000D01*
G75*
G02*
X158230000Y-97760000I50000J0D01*
G01*
X160730000Y-97760000D01*
G75*
G02*
X160780000Y-97810000I0J-50000D01*
G01*
X160780000Y-98910000D01*
G75*
G02*
X160730000Y-98960000I-50000J0D01*
G01*
X158230000Y-98960000D01*
G75*
G02*
X158180000Y-98910000I0J50000D01*
G01*
G37*
G36*
G01*
X158180000Y-100910000D02*
X158180000Y-99810000D01*
G75*
G02*
X158230000Y-99760000I50000J0D01*
G01*
X160730000Y-99760000D01*
G75*
G02*
X160780000Y-99810000I0J-50000D01*
G01*
X160780000Y-100910000D01*
G75*
G02*
X160730000Y-100960000I-50000J0D01*
G01*
X158230000Y-100960000D01*
G75*
G02*
X158180000Y-100910000I0J50000D01*
G01*
G37*
G36*
G01*
X142780000Y-100910000D02*
X142780000Y-99810000D01*
G75*
G02*
X142830000Y-99760000I50000J0D01*
G01*
X145330000Y-99760000D01*
G75*
G02*
X145380000Y-99810000I0J-50000D01*
G01*
X145380000Y-100910000D01*
G75*
G02*
X145330000Y-100960000I-50000J0D01*
G01*
X142830000Y-100960000D01*
G75*
G02*
X142780000Y-100910000I0J50000D01*
G01*
G37*
G36*
G01*
X142780000Y-98910000D02*
X142780000Y-97810000D01*
G75*
G02*
X142830000Y-97760000I50000J0D01*
G01*
X145330000Y-97760000D01*
G75*
G02*
X145380000Y-97810000I0J-50000D01*
G01*
X145380000Y-98910000D01*
G75*
G02*
X145330000Y-98960000I-50000J0D01*
G01*
X142830000Y-98960000D01*
G75*
G02*
X142780000Y-98910000I0J50000D01*
G01*
G37*
G36*
G01*
X142780000Y-96910000D02*
X142780000Y-95810000D01*
G75*
G02*
X142830000Y-95760000I50000J0D01*
G01*
X145330000Y-95760000D01*
G75*
G02*
X145380000Y-95810000I0J-50000D01*
G01*
X145380000Y-96910000D01*
G75*
G02*
X145330000Y-96960000I-50000J0D01*
G01*
X142830000Y-96960000D01*
G75*
G02*
X142780000Y-96910000I0J50000D01*
G01*
G37*
G36*
G01*
X142780000Y-94910000D02*
X142780000Y-93810000D01*
G75*
G02*
X142830000Y-93760000I50000J0D01*
G01*
X145330000Y-93760000D01*
G75*
G02*
X145380000Y-93810000I0J-50000D01*
G01*
X145380000Y-94910000D01*
G75*
G02*
X145330000Y-94960000I-50000J0D01*
G01*
X142830000Y-94960000D01*
G75*
G02*
X142780000Y-94910000I0J50000D01*
G01*
G37*
G36*
G01*
X142780000Y-92910000D02*
X142780000Y-91810000D01*
G75*
G02*
X142830000Y-91760000I50000J0D01*
G01*
X145330000Y-91760000D01*
G75*
G02*
X145380000Y-91810000I0J-50000D01*
G01*
X145380000Y-92910000D01*
G75*
G02*
X145330000Y-92960000I-50000J0D01*
G01*
X142830000Y-92960000D01*
G75*
G02*
X142780000Y-92910000I0J50000D01*
G01*
G37*
G36*
G01*
X142780000Y-90910000D02*
X142780000Y-89810000D01*
G75*
G02*
X142830000Y-89760000I50000J0D01*
G01*
X145330000Y-89760000D01*
G75*
G02*
X145380000Y-89810000I0J-50000D01*
G01*
X145380000Y-90910000D01*
G75*
G02*
X145330000Y-90960000I-50000J0D01*
G01*
X142830000Y-90960000D01*
G75*
G02*
X142780000Y-90910000I0J50000D01*
G01*
G37*
G36*
G01*
X142780000Y-88910000D02*
X142780000Y-87810000D01*
G75*
G02*
X142830000Y-87760000I50000J0D01*
G01*
X145330000Y-87760000D01*
G75*
G02*
X145380000Y-87810000I0J-50000D01*
G01*
X145380000Y-88910000D01*
G75*
G02*
X145330000Y-88960000I-50000J0D01*
G01*
X142830000Y-88960000D01*
G75*
G02*
X142780000Y-88910000I0J50000D01*
G01*
G37*
G36*
G01*
X142780000Y-86910000D02*
X142780000Y-85810000D01*
G75*
G02*
X142830000Y-85760000I50000J0D01*
G01*
X145330000Y-85760000D01*
G75*
G02*
X145380000Y-85810000I0J-50000D01*
G01*
X145380000Y-86910000D01*
G75*
G02*
X145330000Y-86960000I-50000J0D01*
G01*
X142830000Y-86960000D01*
G75*
G02*
X142780000Y-86910000I0J50000D01*
G01*
G37*
G36*
G01*
X171728000Y-101828000D02*
X174728000Y-101828000D01*
G75*
G02*
X174778000Y-101878000I0J-50000D01*
G01*
X174778000Y-104878000D01*
G75*
G02*
X174728000Y-104928000I-50000J0D01*
G01*
X171728000Y-104928000D01*
G75*
G02*
X171678000Y-104878000I0J50000D01*
G01*
X171678000Y-101878000D01*
G75*
G02*
X171728000Y-101828000I50000J0D01*
G01*
G37*
D11*
X173228000Y-108458000D03*
X173228000Y-113538000D03*
D12*
X162540000Y-115610000D03*
G36*
G01*
X154146500Y-104260000D02*
X155733500Y-104260000D01*
G75*
G02*
X156090000Y-104616500I0J-356500D01*
G01*
X156090000Y-106203500D01*
G75*
G02*
X155733500Y-106560000I-356500J0D01*
G01*
X154146500Y-106560000D01*
G75*
G02*
X153790000Y-106203500I0J356500D01*
G01*
X153790000Y-104616500D01*
G75*
G02*
X154146500Y-104260000I356500J0D01*
G01*
G37*
D13*
X162540000Y-105410000D03*
D12*
X162540000Y-123310000D03*
X154940000Y-123310000D03*
G36*
G01*
X138975000Y-102212543D02*
X138975000Y-103527457D01*
G75*
G02*
X138707457Y-103795000I-267543J0D01*
G01*
X137717543Y-103795000D01*
G75*
G02*
X137450000Y-103527457I0J267543D01*
G01*
X137450000Y-102212543D01*
G75*
G02*
X137717543Y-101945000I267543J0D01*
G01*
X138707457Y-101945000D01*
G75*
G02*
X138975000Y-102212543I0J-267543D01*
G01*
G37*
G36*
G01*
X141950000Y-102212543D02*
X141950000Y-103527457D01*
G75*
G02*
X141682457Y-103795000I-267543J0D01*
G01*
X140692543Y-103795000D01*
G75*
G02*
X140425000Y-103527457I0J267543D01*
G01*
X140425000Y-102212543D01*
G75*
G02*
X140692543Y-101945000I267543J0D01*
G01*
X141682457Y-101945000D01*
G75*
G02*
X141950000Y-102212543I0J-267543D01*
G01*
G37*
G36*
G01*
X139115625Y-105540000D02*
X140284375Y-105540000D01*
G75*
G02*
X140550000Y-105805625I0J-265625D01*
G01*
X140550000Y-107974375D01*
G75*
G02*
X140284375Y-108240000I-265625J0D01*
G01*
X139115625Y-108240000D01*
G75*
G02*
X138850000Y-107974375I0J265625D01*
G01*
X138850000Y-105805625D01*
G75*
G02*
X139115625Y-105540000I265625J0D01*
G01*
G37*
G36*
G01*
X139115625Y-109140000D02*
X140284375Y-109140000D01*
G75*
G02*
X140550000Y-109405625I0J-265625D01*
G01*
X140550000Y-111574375D01*
G75*
G02*
X140284375Y-111840000I-265625J0D01*
G01*
X139115625Y-111840000D01*
G75*
G02*
X138850000Y-111574375I0J265625D01*
G01*
X138850000Y-109405625D01*
G75*
G02*
X139115625Y-109140000I265625J0D01*
G01*
G37*
G36*
G01*
X138350000Y-115138375D02*
X138350000Y-113969625D01*
G75*
G02*
X138615625Y-113704000I265625J0D01*
G01*
X140784375Y-113704000D01*
G75*
G02*
X141050000Y-113969625I0J-265625D01*
G01*
X141050000Y-115138375D01*
G75*
G02*
X140784375Y-115404000I-265625J0D01*
G01*
X138615625Y-115404000D01*
G75*
G02*
X138350000Y-115138375I0J265625D01*
G01*
G37*
G36*
G01*
X134750000Y-115138375D02*
X134750000Y-113969625D01*
G75*
G02*
X135015625Y-113704000I265625J0D01*
G01*
X137184375Y-113704000D01*
G75*
G02*
X137450000Y-113969625I0J-265625D01*
G01*
X137450000Y-115138375D01*
G75*
G02*
X137184375Y-115404000I-265625J0D01*
G01*
X135015625Y-115404000D01*
G75*
G02*
X134750000Y-115138375I0J265625D01*
G01*
G37*
D11*
X173228000Y-97790000D03*
X173228000Y-92710000D03*
G36*
G01*
X171728000Y-86080000D02*
X174728000Y-86080000D01*
G75*
G02*
X174778000Y-86130000I0J-50000D01*
G01*
X174778000Y-89130000D01*
G75*
G02*
X174728000Y-89180000I-50000J0D01*
G01*
X171728000Y-89180000D01*
G75*
G02*
X171678000Y-89130000I0J50000D01*
G01*
X171678000Y-86130000D01*
G75*
G02*
X171728000Y-86080000I50000J0D01*
G01*
G37*
G36*
G01*
X130672000Y-91020000D02*
X130672000Y-89320000D01*
G75*
G02*
X130722000Y-89270000I50000J0D01*
G01*
X132422000Y-89270000D01*
G75*
G02*
X132472000Y-89320000I0J-50000D01*
G01*
X132472000Y-91020000D01*
G75*
G02*
X132422000Y-91070000I-50000J0D01*
G01*
X130722000Y-91070000D01*
G75*
G02*
X130672000Y-91020000I0J50000D01*
G01*
G37*
D14*
X131572000Y-92710000D03*
X131572000Y-95250000D03*
D12*
X143510000Y-123310000D03*
X151110000Y-123310000D03*
D13*
X151110000Y-105410000D03*
G36*
G01*
X142716500Y-104260000D02*
X144303500Y-104260000D01*
G75*
G02*
X144660000Y-104616500I0J-356500D01*
G01*
X144660000Y-106203500D01*
G75*
G02*
X144303500Y-106560000I-356500J0D01*
G01*
X142716500Y-106560000D01*
G75*
G02*
X142360000Y-106203500I0J356500D01*
G01*
X142360000Y-104616500D01*
G75*
G02*
X142716500Y-104260000I356500J0D01*
G01*
G37*
D12*
X151110000Y-115610000D03*
G36*
G01*
X155980000Y-109074000D02*
X155980000Y-109874000D01*
G75*
G02*
X155930000Y-109924000I-50000J0D01*
G01*
X155030000Y-109924000D01*
G75*
G02*
X154980000Y-109874000I0J50000D01*
G01*
X154980000Y-109074000D01*
G75*
G02*
X155030000Y-109024000I50000J0D01*
G01*
X155930000Y-109024000D01*
G75*
G02*
X155980000Y-109074000I0J-50000D01*
G01*
G37*
G36*
G01*
X157980000Y-108124000D02*
X157980000Y-108924000D01*
G75*
G02*
X157930000Y-108974000I-50000J0D01*
G01*
X157030000Y-108974000D01*
G75*
G02*
X156980000Y-108924000I0J50000D01*
G01*
X156980000Y-108124000D01*
G75*
G02*
X157030000Y-108074000I50000J0D01*
G01*
X157930000Y-108074000D01*
G75*
G02*
X157980000Y-108124000I0J-50000D01*
G01*
G37*
G36*
G01*
X157980000Y-110024000D02*
X157980000Y-110824000D01*
G75*
G02*
X157930000Y-110874000I-50000J0D01*
G01*
X157030000Y-110874000D01*
G75*
G02*
X156980000Y-110824000I0J50000D01*
G01*
X156980000Y-110024000D01*
G75*
G02*
X157030000Y-109974000I50000J0D01*
G01*
X157930000Y-109974000D01*
G75*
G02*
X157980000Y-110024000I0J-50000D01*
G01*
G37*
G36*
G01*
X146534000Y-110024000D02*
X146534000Y-110824000D01*
G75*
G02*
X146484000Y-110874000I-50000J0D01*
G01*
X145584000Y-110874000D01*
G75*
G02*
X145534000Y-110824000I0J50000D01*
G01*
X145534000Y-110024000D01*
G75*
G02*
X145584000Y-109974000I50000J0D01*
G01*
X146484000Y-109974000D01*
G75*
G02*
X146534000Y-110024000I0J-50000D01*
G01*
G37*
G36*
G01*
X146534000Y-108124000D02*
X146534000Y-108924000D01*
G75*
G02*
X146484000Y-108974000I-50000J0D01*
G01*
X145584000Y-108974000D01*
G75*
G02*
X145534000Y-108924000I0J50000D01*
G01*
X145534000Y-108124000D01*
G75*
G02*
X145584000Y-108074000I50000J0D01*
G01*
X146484000Y-108074000D01*
G75*
G02*
X146534000Y-108124000I0J-50000D01*
G01*
G37*
G36*
G01*
X144534000Y-109074000D02*
X144534000Y-109874000D01*
G75*
G02*
X144484000Y-109924000I-50000J0D01*
G01*
X143584000Y-109924000D01*
G75*
G02*
X143534000Y-109874000I0J50000D01*
G01*
X143534000Y-109074000D01*
G75*
G02*
X143584000Y-109024000I50000J0D01*
G01*
X144484000Y-109024000D01*
G75*
G02*
X144534000Y-109074000I0J-50000D01*
G01*
G37*
G36*
G01*
X163038262Y-110870000D02*
X162081738Y-110870000D01*
G75*
G02*
X161810000Y-110598262I0J271738D01*
G01*
X161810000Y-109891738D01*
G75*
G02*
X162081738Y-109620000I271738J0D01*
G01*
X163038262Y-109620000D01*
G75*
G02*
X163310000Y-109891738I0J-271738D01*
G01*
X163310000Y-110598262D01*
G75*
G02*
X163038262Y-110870000I-271738J0D01*
G01*
G37*
G36*
G01*
X163038262Y-108820000D02*
X162081738Y-108820000D01*
G75*
G02*
X161810000Y-108548262I0J271738D01*
G01*
X161810000Y-107841738D01*
G75*
G02*
X162081738Y-107570000I271738J0D01*
G01*
X163038262Y-107570000D01*
G75*
G02*
X163310000Y-107841738I0J-271738D01*
G01*
X163310000Y-108548262D01*
G75*
G02*
X163038262Y-108820000I-271738J0D01*
G01*
G37*
G36*
G01*
X151608262Y-108820000D02*
X150651738Y-108820000D01*
G75*
G02*
X150380000Y-108548262I0J271738D01*
G01*
X150380000Y-107841738D01*
G75*
G02*
X150651738Y-107570000I271738J0D01*
G01*
X151608262Y-107570000D01*
G75*
G02*
X151880000Y-107841738I0J-271738D01*
G01*
X151880000Y-108548262D01*
G75*
G02*
X151608262Y-108820000I-271738J0D01*
G01*
G37*
G36*
G01*
X151608262Y-110870000D02*
X150651738Y-110870000D01*
G75*
G02*
X150380000Y-110598262I0J271738D01*
G01*
X150380000Y-109891738D01*
G75*
G02*
X150651738Y-109620000I271738J0D01*
G01*
X151608262Y-109620000D01*
G75*
G02*
X151880000Y-109891738I0J-271738D01*
G01*
X151880000Y-110598262D01*
G75*
G02*
X151608262Y-110870000I-271738J0D01*
G01*
G37*
G36*
G01*
X148814262Y-110870000D02*
X147857738Y-110870000D01*
G75*
G02*
X147586000Y-110598262I0J271738D01*
G01*
X147586000Y-109891738D01*
G75*
G02*
X147857738Y-109620000I271738J0D01*
G01*
X148814262Y-109620000D01*
G75*
G02*
X149086000Y-109891738I0J-271738D01*
G01*
X149086000Y-110598262D01*
G75*
G02*
X148814262Y-110870000I-271738J0D01*
G01*
G37*
G36*
G01*
X148814262Y-108820000D02*
X147857738Y-108820000D01*
G75*
G02*
X147586000Y-108548262I0J271738D01*
G01*
X147586000Y-107841738D01*
G75*
G02*
X147857738Y-107570000I271738J0D01*
G01*
X148814262Y-107570000D01*
G75*
G02*
X149086000Y-107841738I0J-271738D01*
G01*
X149086000Y-108548262D01*
G75*
G02*
X148814262Y-108820000I-271738J0D01*
G01*
G37*
G36*
G01*
X142103000Y-83341738D02*
X142103000Y-84298262D01*
G75*
G02*
X141831262Y-84570000I-271738J0D01*
G01*
X141124738Y-84570000D01*
G75*
G02*
X140853000Y-84298262I0J271738D01*
G01*
X140853000Y-83341738D01*
G75*
G02*
X141124738Y-83070000I271738J0D01*
G01*
X141831262Y-83070000D01*
G75*
G02*
X142103000Y-83341738I0J-271738D01*
G01*
G37*
G36*
G01*
X140053000Y-83341738D02*
X140053000Y-84298262D01*
G75*
G02*
X139781262Y-84570000I-271738J0D01*
G01*
X139074738Y-84570000D01*
G75*
G02*
X138803000Y-84298262I0J271738D01*
G01*
X138803000Y-83341738D01*
G75*
G02*
X139074738Y-83070000I271738J0D01*
G01*
X139781262Y-83070000D01*
G75*
G02*
X140053000Y-83341738I0J-271738D01*
G01*
G37*
G36*
G01*
X141448262Y-86985000D02*
X140491738Y-86985000D01*
G75*
G02*
X140220000Y-86713262I0J271738D01*
G01*
X140220000Y-86006738D01*
G75*
G02*
X140491738Y-85735000I271738J0D01*
G01*
X141448262Y-85735000D01*
G75*
G02*
X141720000Y-86006738I0J-271738D01*
G01*
X141720000Y-86713262D01*
G75*
G02*
X141448262Y-86985000I-271738J0D01*
G01*
G37*
G36*
G01*
X141448262Y-89035000D02*
X140491738Y-89035000D01*
G75*
G02*
X140220000Y-88763262I0J271738D01*
G01*
X140220000Y-88056738D01*
G75*
G02*
X140491738Y-87785000I271738J0D01*
G01*
X141448262Y-87785000D01*
G75*
G02*
X141720000Y-88056738I0J-271738D01*
G01*
X141720000Y-88763262D01*
G75*
G02*
X141448262Y-89035000I-271738J0D01*
G01*
G37*
G36*
G01*
X140853000Y-81758262D02*
X140853000Y-80801738D01*
G75*
G02*
X141124738Y-80530000I271738J0D01*
G01*
X141831262Y-80530000D01*
G75*
G02*
X142103000Y-80801738I0J-271738D01*
G01*
X142103000Y-81758262D01*
G75*
G02*
X141831262Y-82030000I-271738J0D01*
G01*
X141124738Y-82030000D01*
G75*
G02*
X140853000Y-81758262I0J271738D01*
G01*
G37*
G36*
G01*
X138803000Y-81758262D02*
X138803000Y-80801738D01*
G75*
G02*
X139074738Y-80530000I271738J0D01*
G01*
X139781262Y-80530000D01*
G75*
G02*
X140053000Y-80801738I0J-271738D01*
G01*
X140053000Y-81758262D01*
G75*
G02*
X139781262Y-82030000I-271738J0D01*
G01*
X139074738Y-82030000D01*
G75*
G02*
X138803000Y-81758262I0J271738D01*
G01*
G37*
G36*
G01*
X163038262Y-100465000D02*
X162081738Y-100465000D01*
G75*
G02*
X161810000Y-100193262I0J271738D01*
G01*
X161810000Y-99486738D01*
G75*
G02*
X162081738Y-99215000I271738J0D01*
G01*
X163038262Y-99215000D01*
G75*
G02*
X163310000Y-99486738I0J-271738D01*
G01*
X163310000Y-100193262D01*
G75*
G02*
X163038262Y-100465000I-271738J0D01*
G01*
G37*
G36*
G01*
X163038262Y-98415000D02*
X162081738Y-98415000D01*
G75*
G02*
X161810000Y-98143262I0J271738D01*
G01*
X161810000Y-97436738D01*
G75*
G02*
X162081738Y-97165000I271738J0D01*
G01*
X163038262Y-97165000D01*
G75*
G02*
X163310000Y-97436738I0J-271738D01*
G01*
X163310000Y-98143262D01*
G75*
G02*
X163038262Y-98415000I-271738J0D01*
G01*
G37*
G36*
G01*
X131450000Y-109440000D02*
X135250000Y-109440000D01*
G75*
G02*
X135300000Y-109490000I0J-50000D01*
G01*
X135300000Y-111490000D01*
G75*
G02*
X135250000Y-111540000I-50000J0D01*
G01*
X131450000Y-111540000D01*
G75*
G02*
X131400000Y-111490000I0J50000D01*
G01*
X131400000Y-109490000D01*
G75*
G02*
X131450000Y-109440000I50000J0D01*
G01*
G37*
G36*
G01*
X132600000Y-103140000D02*
X134100000Y-103140000D01*
G75*
G02*
X134150000Y-103190000I0J-50000D01*
G01*
X134150000Y-105190000D01*
G75*
G02*
X134100000Y-105240000I-50000J0D01*
G01*
X132600000Y-105240000D01*
G75*
G02*
X132550000Y-105190000I0J50000D01*
G01*
X132550000Y-103190000D01*
G75*
G02*
X132600000Y-103140000I50000J0D01*
G01*
G37*
G36*
G01*
X130300000Y-103140000D02*
X131800000Y-103140000D01*
G75*
G02*
X131850000Y-103190000I0J-50000D01*
G01*
X131850000Y-105190000D01*
G75*
G02*
X131800000Y-105240000I-50000J0D01*
G01*
X130300000Y-105240000D01*
G75*
G02*
X130250000Y-105190000I0J50000D01*
G01*
X130250000Y-103190000D01*
G75*
G02*
X130300000Y-103140000I50000J0D01*
G01*
G37*
G36*
G01*
X134900000Y-103140000D02*
X136400000Y-103140000D01*
G75*
G02*
X136450000Y-103190000I0J-50000D01*
G01*
X136450000Y-105190000D01*
G75*
G02*
X136400000Y-105240000I-50000J0D01*
G01*
X134900000Y-105240000D01*
G75*
G02*
X134850000Y-105190000I0J50000D01*
G01*
X134850000Y-103190000D01*
G75*
G02*
X134900000Y-103140000I50000J0D01*
G01*
G37*
G36*
G01*
X133962543Y-85597500D02*
X135277457Y-85597500D01*
G75*
G02*
X135545000Y-85865043I0J-267543D01*
G01*
X135545000Y-86854957D01*
G75*
G02*
X135277457Y-87122500I-267543J0D01*
G01*
X133962543Y-87122500D01*
G75*
G02*
X133695000Y-86854957I0J267543D01*
G01*
X133695000Y-85865043D01*
G75*
G02*
X133962543Y-85597500I267543J0D01*
G01*
G37*
G36*
G01*
X133962543Y-88572500D02*
X135277457Y-88572500D01*
G75*
G02*
X135545000Y-88840043I0J-267543D01*
G01*
X135545000Y-89829957D01*
G75*
G02*
X135277457Y-90097500I-267543J0D01*
G01*
X133962543Y-90097500D01*
G75*
G02*
X133695000Y-89829957I0J267543D01*
G01*
X133695000Y-88840043D01*
G75*
G02*
X133962543Y-88572500I267543J0D01*
G01*
G37*
G36*
G01*
X135277457Y-93037500D02*
X133962543Y-93037500D01*
G75*
G02*
X133695000Y-92769957I0J267543D01*
G01*
X133695000Y-91780043D01*
G75*
G02*
X133962543Y-91512500I267543J0D01*
G01*
X135277457Y-91512500D01*
G75*
G02*
X135545000Y-91780043I0J-267543D01*
G01*
X135545000Y-92769957D01*
G75*
G02*
X135277457Y-93037500I-267543J0D01*
G01*
G37*
G36*
G01*
X135277457Y-96012500D02*
X133962543Y-96012500D01*
G75*
G02*
X133695000Y-95744957I0J267543D01*
G01*
X133695000Y-94755043D01*
G75*
G02*
X133962543Y-94487500I267543J0D01*
G01*
X135277457Y-94487500D01*
G75*
G02*
X135545000Y-94755043I0J-267543D01*
G01*
X135545000Y-95744957D01*
G75*
G02*
X135277457Y-96012500I-267543J0D01*
G01*
G37*
G36*
G01*
X160498262Y-110870000D02*
X159541738Y-110870000D01*
G75*
G02*
X159270000Y-110598262I0J271738D01*
G01*
X159270000Y-109891738D01*
G75*
G02*
X159541738Y-109620000I271738J0D01*
G01*
X160498262Y-109620000D01*
G75*
G02*
X160770000Y-109891738I0J-271738D01*
G01*
X160770000Y-110598262D01*
G75*
G02*
X160498262Y-110870000I-271738J0D01*
G01*
G37*
G36*
G01*
X160498262Y-108820000D02*
X159541738Y-108820000D01*
G75*
G02*
X159270000Y-108548262I0J271738D01*
G01*
X159270000Y-107841738D01*
G75*
G02*
X159541738Y-107570000I271738J0D01*
G01*
X160498262Y-107570000D01*
G75*
G02*
X160770000Y-107841738I0J-271738D01*
G01*
X160770000Y-108548262D01*
G75*
G02*
X160498262Y-108820000I-271738J0D01*
G01*
G37*
G36*
G01*
X152758543Y-110453000D02*
X154073457Y-110453000D01*
G75*
G02*
X154341000Y-110720543I0J-267543D01*
G01*
X154341000Y-111710457D01*
G75*
G02*
X154073457Y-111978000I-267543J0D01*
G01*
X152758543Y-111978000D01*
G75*
G02*
X152491000Y-111710457I0J267543D01*
G01*
X152491000Y-110720543D01*
G75*
G02*
X152758543Y-110453000I267543J0D01*
G01*
G37*
G36*
G01*
X152758543Y-107478000D02*
X154073457Y-107478000D01*
G75*
G02*
X154341000Y-107745543I0J-267543D01*
G01*
X154341000Y-108735457D01*
G75*
G02*
X154073457Y-109003000I-267543J0D01*
G01*
X152758543Y-109003000D01*
G75*
G02*
X152491000Y-108735457I0J267543D01*
G01*
X152491000Y-107745543D01*
G75*
G02*
X152758543Y-107478000I267543J0D01*
G01*
G37*
G36*
G01*
X144421457Y-116042000D02*
X143106543Y-116042000D01*
G75*
G02*
X142839000Y-115774457I0J267543D01*
G01*
X142839000Y-114784543D01*
G75*
G02*
X143106543Y-114517000I267543J0D01*
G01*
X144421457Y-114517000D01*
G75*
G02*
X144689000Y-114784543I0J-267543D01*
G01*
X144689000Y-115774457D01*
G75*
G02*
X144421457Y-116042000I-267543J0D01*
G01*
G37*
G36*
G01*
X144421457Y-113067000D02*
X143106543Y-113067000D01*
G75*
G02*
X142839000Y-112799457I0J267543D01*
G01*
X142839000Y-111809543D01*
G75*
G02*
X143106543Y-111542000I267543J0D01*
G01*
X144421457Y-111542000D01*
G75*
G02*
X144689000Y-111809543I0J-267543D01*
G01*
X144689000Y-112799457D01*
G75*
G02*
X144421457Y-113067000I-267543J0D01*
G01*
G37*
M02*
